<svg xmlns="http://www.w3.org/2000/svg" width="170" height="35" viewBox="0 0 170 35">
    <g fill="none" fill-rule="evenodd">
        <g>
            <g>
                <path fill="#FFF" d="M167.64 22.743l-1.994 4.592-2.076-4.592h-1.494l2.865 5.92-1.661 3.512h1.425l4.33-9.432h-1.395zm-40.009 0h-1.3v4.011c0 1.01-.526 1.7-1.578 1.7-1.093 0-1.507-.802-1.507-1.713v-3.998h-1.303v4.19c0 1.508.942 2.67 2.491 2.67.774 0 1.605-.318 1.964-1.01 0 .278.03.65.058.803h1.245c-.027-.236-.07-.704-.07-1.23v-5.423zm32.314-2.103h-1.19v1.079c0 .58-.305 1.024-1.025 1.024h-.36v1.176h1.274v3.65c0 1.203.72 1.896 1.853 1.896.444 0 .778-.083.887-.126v-1.106c-.11.03-.346.055-.511.055-.679 0-.928-.303-.928-.912V23.92h1.44v-1.176h-1.44V20.64zm-5.106 8.756h1.287v-6.653h-1.287v6.653zm.636-10.11c-.512 0-.926.413-.926.94 0 .511.414.927.926.927.527 0 .94-.416.94-.927 0-.527-.413-.94-.94-.94zm-4.304 4.619v-1.162h-1.273v6.654h1.3v-3.335c0-1.465.734-2.048 1.828-2.048.18 0 .372.015.568.043v-1.384c-.07-.012-.25-.041-.43-.041-.678 0-1.508.249-1.993 1.273zm-19.72-3.265h-1.19v1.079c0 .58-.304 1.024-1.025 1.024h-.359v1.176h1.274v3.65c0 1.203.72 1.896 1.853 1.896.444 0 .776-.083.885-.126v-1.106c-.109.03-.344.055-.511.055-.677 0-.928-.303-.928-.912V23.92h1.44v-1.176h-1.44V20.64zm13.521 7.801c-1.106 0-2.076-.83-2.076-2.379 0-1.535.97-2.365 2.076-2.365 1.107 0 2.075.83 2.075 2.365 0 1.55-.968 2.38-2.075 2.38zm0-5.906c-1.993 0-3.405 1.508-3.405 3.527 0 2.033 1.412 3.541 3.405 3.541 1.993 0 3.403-1.508 3.403-3.54 0-2.02-1.41-3.528-3.403-3.528zm-7.17.013c-.76 0-1.534.263-2.02.97v-4.136h-1.3v10.014h1.3V25.48c.03-.981.555-1.757 1.552-1.757 1.16 0 1.548.747 1.548 1.674v3.998h1.301v-4.218c0-1.481-.79-2.63-2.38-2.63zm-22.944 2.85l1.674-4.399 1.701 4.399h-3.375zm.927-5.81l-3.902 9.81h1.452l1.038-2.741h4.346l1.066 2.74h1.466l-3.902-9.809h-1.564zm13.21-4.924c-.967 0-1.686-.72-1.686-1.936 0-1.217.745-1.909 1.686-1.909s1.674.678 1.674 1.895c0 1.23-.733 1.95-1.674 1.95zm1.688.691c0 .32.043.65.07.79h1.756c-.026-.278-.055-.776-.055-1.233V6.13h-1.812v3.887c-.194-.36-.747-.843-1.923-.843-1.923 0-3.265 1.563-3.265 3.555 0 2.06 1.383 3.582 3.32 3.582.913 0 1.604-.414 1.909-.955zM95.677 25.384c.055-.857.72-1.7 1.812-1.7 1.177 0 1.8.746 1.828 1.7h-3.64zm1.8-2.85c-1.676 0-3.184 1.425-3.184 3.515 0 2.254 1.563 3.554 3.348 3.554 1.55 0 2.617-.927 2.99-2.102l-1.12-.387c-.25.746-.789 1.34-1.87 1.34-1.12 0-1.978-.827-2.007-2.019h5.011c.014-.083.03-.248.03-.415 0-2.074-1.15-3.485-3.198-3.485zm14.648-8.354c0-.525.375-.788.845-.858l1.536-.235v.305c0 1.203-.72 1.577-1.493 1.577-.597 0-.888-.387-.888-.79zm2.506 1.148c0 .263.027.636.068.816h1.688c-.04-.235-.08-.72-.08-1.08v-3.347c0-1.368-.805-2.585-2.963-2.585-1.826 0-2.808 1.174-2.92 2.24l1.632.345c.057-.593.498-1.106 1.301-1.106.776 0 1.15.402 1.15.885 0 .235-.125.43-.512.484l-1.674.248c-1.136.167-2.036.846-2.036 2.062 0 1.065.887 2.049 2.34 2.049 1.01 0 1.66-.47 2.006-1.01zm-24.115 7.22c-.777 0-1.563.32-2.05 1.149v-.954h-1.273v6.653h1.301V25.55c0-1.01.527-1.827 1.55-1.827 1.163 0 1.55.747 1.55 1.674v3.998h1.3v-4.218c0-1.481-.789-2.63-2.378-2.63zm29.346-10.32c0-.787.47-1.409 1.273-1.409.885 0 1.26.595 1.26 1.355v3.97h1.84v-4.287c0-1.495-.774-2.698-2.462-2.698-.735 0-1.552.319-1.966 1.023v-.844h-1.787v6.806h1.842v-3.916zm-14.94 16.2c-1.247 0-1.953-1.011-1.953-2.38 0-1.368.776-2.337 1.964-2.337 1.194 0 1.913.94 1.913 2.309 0 1.37-.735 2.408-1.925 2.408zm3.198-9.046h-1.29v4.301c-.22-.54-.857-1.12-2.032-1.12-1.884 0-3.157 1.604-3.157 3.486 0 1.978 1.205 3.525 3.157 3.525 1.037 0 1.743-.552 2.062-1.187v.109c0 .402.04.748.068.9h1.26c-.014-.111-.068-.595-.068-1.23v-8.784zm-29.106 9.03c-1.147 0-1.979-.939-1.979-2.377 0-1.438.832-2.338 1.98-2.338 1.203 0 1.965.9 1.965 2.338 0 1.438-.774 2.377-1.966 2.377zm.236-5.864c-1.107 0-1.88.54-2.201 1.135v-4.3h-1.286v10.013h1.286v-.968c.416.719 1.178 1.146 2.16 1.146 1.98 0 3.1-1.562 3.1-3.539 0-1.938-1.037-3.487-3.06-3.487zm-28.563 5.81c-1.787 0-3.489-1.314-3.489-3.872 0-2.56 1.702-3.86 3.489-3.86 1.606 0 2.683.83 3.058 2.311l1.259-.443c-.5-1.895-2.075-3.112-4.317-3.112-2.437 0-4.871 1.825-4.871 5.104s2.337 5.117 4.87 5.117c2.255 0 3.806-1.313 4.331-3.154l-1.203-.443c-.401 1.341-1.453 2.352-3.127 2.352zm88.522-14.248c0-.995-.678-1.812-2.02-2.088l-.97-.208c-.373-.068-.622-.276-.622-.608 0-.387.388-.678.873-.678.774 0 1.065.513 1.12.913l1.534-.346c-.082-.733-.731-1.963-2.668-1.963-1.466 0-2.547 1.009-2.547 2.226 0 .954.595 1.743 1.91 2.034l.898.206c.527.111.735.36.735.665 0 .36-.292.678-.899.678-.803 0-1.205-.499-1.246-1.037l-1.579.344c.084.775.79 2.103 2.837 2.103 1.785 0 2.644-1.134 2.644-2.241zm-54.74 5.175c-.514 0-.928.414-.928.94 0 .512.414.928.928.928.523 0 .939-.416.939-.927 0-.527-.416-.94-.94-.94zm-12.941 3.263c-.844 0-1.702.305-2.228 1.26-.36-.86-1.161-1.26-1.993-1.26-.774 0-1.605.346-2.02 1.08v-.885h-1.245v6.653h1.287v-4.012c0-.995.622-1.687 1.55-1.687.995 0 1.41.665 1.41 1.522v4.177h1.3V25.37c0-.954.625-1.673 1.537-1.673.983 0 1.413.651 1.413 1.522v4.177h1.286v-4.317c0-1.742-1.136-2.53-2.297-2.53zm12.303 6.848h1.287v-6.653h-1.287v6.653zm-24.715-.955c-1.108 0-2.077-.83-2.077-2.379 0-1.535.969-2.365 2.077-2.365 1.107 0 2.073.83 2.073 2.365 0 1.55-.966 2.38-2.073 2.38zm0-5.906c-1.993 0-3.406 1.508-3.406 3.527 0 2.033 1.413 3.541 3.406 3.541 1.991 0 3.403-1.508 3.403-3.54 0-2.02-1.412-3.528-3.403-3.528zm47.957-6.39h1.841V6.13h-1.841v10.013zm-5.313-1.481c-.968 0-1.688-.72-1.688-1.936 0-1.217.749-1.909 1.688-1.909.941 0 1.676.678 1.676 1.895 0 1.23-.735 1.95-1.676 1.95zm1.688.691c0 .32.043.65.07.79h1.758c-.027-.278-.055-.776-.055-1.233V6.13h-1.814v3.887c-.192-.36-.747-.843-1.923-.843-1.925 0-3.267 1.563-3.267 3.555 0 2.06 1.385 3.582 3.322 3.582.913 0 1.606-.414 1.91-.955zm-8.385.79h1.842V9.34h-1.842v6.804zm.914-7.913c.636 0 1.134-.513 1.134-1.121 0-.636-.498-1.147-1.134-1.147-.624 0-1.135.511-1.135 1.147 0 .608.511 1.121 1.135 1.121zm-6.644-1.901l-2.24 6.985L84.85 6.33h-1.966l-2.713 9.805h1.952l1.772-6.777 2.185 6.777h1.98l2.174-6.75 1.797 6.75h2.02L91.326 6.33h-1.993zm-19.99 8.61c-.804 0-1.204-.499-1.247-1.037l-1.579.344c.084.775.79 2.103 2.839 2.103 1.783 0 2.643-1.134 2.643-2.241 0-.995-.677-1.812-2.02-2.088l-.97-.208c-.373-.068-.623-.276-.623-.608 0-.387.389-.678.873-.678.775 0 1.065.513 1.12.913l1.536-.346c-.082-.733-.733-1.963-2.67-1.963-1.466 0-2.547 1.009-2.547 2.226 0 .954.595 1.743 1.911 2.034l.899.206c.526.111.733.36.733.665 0 .36-.29.678-.899.678zm7.637 1.134v-1.522c-.097.029-.346.056-.567.056-.527 0-.803-.194-.803-.789v-2.85h1.37V9.339h-1.37V7.305h-1.66v.955c0 .608-.333 1.078-1.051 1.078h-.346v1.633h1.23v3.168c0 1.314.831 2.1 2.16 2.1.54 0 .87-.095 1.037-.164zm-14.53-5.45c1.051 0 1.494.664 1.522 1.341h-3.045c.04-.622.567-1.341 1.524-1.341zm3.239 3.568l-1.537-.456c-.221.61-.693 1.037-1.551 1.037-.912 0-1.674-.649-1.715-1.549h4.87c0-.027.03-.303.03-.567 0-2.185-1.26-3.526-3.364-3.526-1.743 0-3.349 1.41-3.349 3.582 0 2.295 1.647 3.637 3.516 3.637 1.674 0 2.753-.982 3.1-2.158zm-15.611 1.951l2.24-6.985 2.244 6.985h1.964l2.713-9.807h-1.952l-1.772 6.778-2.186-6.778h-1.98l-2.171 6.75-1.799-6.75h-2.02l2.726 9.807h1.993z" transform="translate(-176 -15) translate(176 15)"/>
                <path fill="#F58025" fill-opacity=".5" d="M7.534 32.144C8.553 33.912 10.44 35 12.48 35l6.801-3.932-11.748-6.776V32.144zm30.31-17.503l-.005-.007-6.796-3.921v13.572l6.796-3.921.005-.007c1.021-1.769 1.021-3.947 0-5.716zM12.492 0c-2.042-.002-3.928 1.088-4.95 2.854l-.008.014v7.845l11.754-6.78L12.48.007l.01-.007z" transform="translate(-176 -15) translate(176 15)"/>
                <path fill="#F58025" d="M.764 20.357l6.793 11.785V2.856L.764 14.641c-1.019 1.769-1.019 3.947 0 5.716zM26.085 35c2.037 0 3.92-1.088 4.941-2.856l6.8-11.78L12.497 34.99 26.085 35zm4.941-32.146C30.006 1.088 28.122-.002 26.086 0L12.497.007l25.327 14.63-6.799-11.783z" transform="translate(-176 -15) translate(176 15)"/>
            </g>
        </g>
    </g>
</svg>
