<?xml version="1.0" encoding="UTF-8"?>
<svg id="Layer_2" data-name="Layer 2" xmlns="http://www.w3.org/2000/svg" viewBox="0 0 38.61 35">
  <g id="Layer_1-2" data-name="Layer 1">
    <g>
      <path d="M7.53425,32.144c1.019,1.768,2.906,2.856,4.946,2.856l6.801-3.932-11.748-6.776v7.852h.001ZM37.84425,14.641l-.005-.007-6.796-3.921v13.572l6.796-3.921.005-.007c1.021-1.769,1.021-3.947,0-5.716ZM12.49225,0c-2.042-.002-3.928,1.088-4.95,2.854l-.008.014v7.845l11.754-6.78L12.48025.007,12.49025,0h.002Z" style="fill: rgba(245, 128, 37, .5); fill-rule: evenodd; stroke-width: 0px;"/>
      <path d="M.76425,20.357l6.793,11.785V2.856L.76425,14.641c-1.019,1.769-1.019,3.947,0,5.716ZM26.08525,35c2.037,0,3.92-1.088,4.941-2.856l6.8-11.78-25.329,14.626,13.588.01ZM31.02625,2.854C30.00625,1.088,28.12225-.002,26.08625,0l-13.589.007,25.327,14.63-6.799-11.783h.001Z" style="fill: #f58025; fill-rule: evenodd; stroke-width: 0px;"/>
    </g>
  </g>
</svg>